HIERARCHY
ROOT pelvis
{
	OFFSET 0.003123 -0.351407 0.012037
	CHANNELS 6 Xposition Yposition Zposition Zrotation Yrotation Xrotation 
	JOINT left_hip
	{
		OFFSET 0.058189 -0.092763 -0.026001
		CHANNELS 3 Zrotation Yrotation Xrotation
		JOINT left_knee
		{
			OFFSET 0.054695 -0.378753 -0.009396
			CHANNELS 3 Zrotation Yrotation Xrotation
			JOINT left_ankle
			{
				OFFSET -0.043453 -0.403059 -0.031876
				CHANNELS 3 Zrotation Yrotation Xrotation
				JOINT left_foot
				{
					OFFSET 0.047257 -0.057997 0.118216
					CHANNELS 3 Zrotation Yrotation Xrotation
					End Site
					{
						OFFSET 0.000000 0.000000 0.000000
					}
				}
			}
		}
	}
	JOINT right_hip
	{
		OFFSET -0.063267 -0.103908 -0.021250
		CHANNELS 3 Zrotation Yrotation Xrotation
		JOINT right_knee
		{
			OFFSET -0.044210 -0.362380 -0.016824
			CHANNELS 3 Zrotation Yrotation Xrotation
			JOINT right_ankle
			{
				OFFSET 0.015417 -0.410728 -0.020192
				CHANNELS 3 Zrotation Yrotation Xrotation
				JOINT right_foot
				{
					OFFSET -0.038812 -0.058328 0.119049
					CHANNELS 3 Zrotation Yrotation Xrotation
					End Site
					{
						OFFSET 0.000000 0.000000 0.000000
					}
				}
			}
		}
	}
	JOINT spine_1
	{
		OFFSET -0.002763 0.109891 -0.027618
		CHANNELS 3 Zrotation Yrotation Xrotation
		JOINT spine_2
		{
			OFFSET 0.009448 0.131853 -0.005940
			CHANNELS 3 Zrotation Yrotation Xrotation
			JOINT spine_3
			{
				OFFSET -0.011330 0.052235 0.028447
				CHANNELS 3 Zrotation Yrotation Xrotation
				JOINT neck
				{
					OFFSET -0.012164 0.165167 -0.031615
					CHANNELS 3 Zrotation Yrotation Xrotation
					JOINT head
					{
						OFFSET 0.024783 0.160452 0.020737
						CHANNELS 3 Zrotation Yrotation Xrotation
						End Site
						{
							OFFSET 0.000000 0.000000 0.000000
						}
					}
				}
				JOINT left_collar
				{
					OFFSET 0.046364 0.084944 -0.007220
					CHANNELS 3 Zrotation Yrotation Xrotation
					JOINT left_shoulder
					{
						OFFSET 0.119239 0.057728 -0.015461
						CHANNELS 3 Zrotation Yrotation Xrotation
						JOINT left_elbow
						{
							OFFSET 0.254123 -0.072151 -0.042459
							CHANNELS 3 Zrotation Yrotation Xrotation
							JOINT left_wrist
							{
								OFFSET 0.251987 0.023221 -0.002472
								CHANNELS 3 Zrotation Yrotation Xrotation
								JOINT left_index_1
								{
									OFFSET 0.101902 -0.008688 0.019351
									CHANNELS 3 Zrotation Yrotation Xrotation
									JOINT left_index_2
									{
										OFFSET 0.030149 -0.011154 0.001151
										CHANNELS 3 Zrotation Yrotation Xrotation
										JOINT left_index_3
										{
											OFFSET 0.006504 -0.021577 -0.002433
											CHANNELS 3 Zrotation Yrotation Xrotation
											End Site
											{
												OFFSET 0.000000 0.000000 0.000000
											}
										}
									}
								}
								JOINT left_middle_1
								{
									OFFSET 0.109398 -0.006328 -0.003981
									CHANNELS 3 Zrotation Yrotation Xrotation
									JOINT left_middle_2
									{
										OFFSET 0.026472 -0.015218 -0.004641
										CHANNELS 3 Zrotation Yrotation Xrotation
										JOINT left_middle_3
										{
											OFFSET 0.005022 -0.023347 -0.001911
											CHANNELS 3 Zrotation Yrotation Xrotation
											End Site
											{
												OFFSET 0.000000 0.000000 0.000000
											}
										}
									}
								}
								JOINT left_pinky_1
								{
									OFFSET 0.084047 -0.014539 -0.043750
									CHANNELS 3 Zrotation Yrotation Xrotation
									JOINT left_pinky_2
									{
										OFFSET 0.012124 -0.014448 -0.005375
										CHANNELS 3 Zrotation Yrotation Xrotation
										JOINT left_pinky_3
										{
											OFFSET 0.003798 -0.018853 0.000167
											CHANNELS 3 Zrotation Yrotation Xrotation
											End Site
											{
												OFFSET 0.000000 0.000000 0.000000
											}
										}
									}
								}
								JOINT left_ring_1
								{
									OFFSET 0.097444 -0.009268 -0.027345
									CHANNELS 3 Zrotation Yrotation Xrotation
									JOINT left_ring_2
									{
										OFFSET 0.023561 -0.016057 -0.001895
										CHANNELS 3 Zrotation Yrotation Xrotation
										JOINT left_ring_3
										{
											OFFSET 0.004257 -0.023548 0.000814
											CHANNELS 3 Zrotation Yrotation Xrotation
											End Site
											{
												OFFSET 0.000000 0.000000 0.000000
											}
										}
									}
								}
								JOINT left_thumb_1
								{
									OFFSET 0.040636 -0.017977 0.025611
									CHANNELS 3 Zrotation Yrotation Xrotation
									JOINT left_thumb_2
									{
										OFFSET 0.021637 -0.017639 0.011623
										CHANNELS 3 Zrotation Yrotation Xrotation
										JOINT left_thumb_3
										{
											OFFSET 0.024002 -0.008356 0.006548
											CHANNELS 3 Zrotation Yrotation Xrotation
											End Site
											{
												OFFSET 0.000000 0.000000 0.000000
											}
										}
									}
								}
							}
						}
					}
				}
				JOINT right_collar
				{
					OFFSET -0.047695 0.084339 -0.013400
					CHANNELS 3 Zrotation Yrotation Xrotation
					JOINT right_shoulder
					{
						OFFSET -0.102578 0.053524 -0.012669
						CHANNELS 3 Zrotation Yrotation Xrotation
						JOINT right_elbow
						{
							OFFSET -0.271150 -0.036492 -0.026467
							CHANNELS 3 Zrotation Yrotation Xrotation
							JOINT right_wrist
							{
								OFFSET -0.249267 -0.004533 -0.015325
								CHANNELS 3 Zrotation Yrotation Xrotation
								JOINT right_index_1
								{
									OFFSET -0.099881 -0.011783 0.019600
									CHANNELS 3 Zrotation Yrotation Xrotation
									JOINT right_index_2
									{
										OFFSET -0.030148 -0.011154 0.001151
										CHANNELS 3 Zrotation Yrotation Xrotation
										JOINT right_index_3
										{
											OFFSET -0.006505 -0.021577 -0.002432
											CHANNELS 3 Zrotation Yrotation Xrotation
											End Site
											{
												OFFSET 0.000000 0.000000 0.000000
											}
										}
									}
								}
								JOINT right_middle_1
								{
									OFFSET -0.107376 -0.009422 -0.003734
									CHANNELS 3 Zrotation Yrotation Xrotation
									JOINT right_middle_2
									{
										OFFSET -0.026472 -0.015218 -0.004641
										CHANNELS 3 Zrotation Yrotation Xrotation
										JOINT right_middle_3
										{
											OFFSET -0.005022 -0.023347 -0.001911
											CHANNELS 3 Zrotation Yrotation Xrotation
											End Site
											{
												OFFSET 0.000000 0.000000 0.000000
											}
										}
									}
								}
								JOINT right_pinky_1
								{
									OFFSET -0.082027 -0.017634 -0.043503
									CHANNELS 3 Zrotation Yrotation Xrotation
									JOINT right_pinky_2
									{
										OFFSET -0.012123 -0.014448 -0.005374
										CHANNELS 3 Zrotation Yrotation Xrotation
										JOINT right_pinky_3
										{
											OFFSET -0.003798 -0.018852 0.000167
											CHANNELS 3 Zrotation Yrotation Xrotation
											End Site
											{
												OFFSET 0.000000 0.000000 0.000000
											}
										}
									}
								}
								JOINT right_ring_1
								{
									OFFSET -0.095423 -0.012362 -0.027099
									CHANNELS 3 Zrotation Yrotation Xrotation
									JOINT right_ring_2
									{
										OFFSET -0.023561 -0.016057 -0.001895
										CHANNELS 3 Zrotation Yrotation Xrotation
										JOINT right_ring_3
										{
											OFFSET -0.004257 -0.023548 0.000816
											CHANNELS 3 Zrotation Yrotation Xrotation
											End Site
											{
												OFFSET 0.000000 0.000000 0.000000
											}
										}
									}
								}
								JOINT right_thumb_1
								{
									OFFSET -0.038613 -0.021074 0.025861
									CHANNELS 3 Zrotation Yrotation Xrotation
									JOINT right_thumb_2
									{
										OFFSET -0.021636 -0.017639 0.011623
										CHANNELS 3 Zrotation Yrotation Xrotation
										JOINT right_thumb_3
										{
											OFFSET -0.024004 -0.008353 0.006547
											CHANNELS 3 Zrotation Yrotation Xrotation
											End Site
											{
												OFFSET 0.000000 0.000000 0.000000
											}
										}
									}
								}
							}
						}
					}
				}
			}
		}
	}
}
MOTION
Frames: 4
Frame Time: 0.050000
0.001558 0.957218 0.005867 0.319232 1.991521 -11.391470 1.878690 2.063978 16.700702 -2.085041 0.457713 -3.385896 2.560086 9.795204 7.497438 0.000000 0.000000 0.000000 -4.294334 -1.362993 16.670666 0.336676 -0.105843 -2.453573 -0.918685 -4.317911 4.342941 0.000000 0.000000 0.000000 -0.174682 -1.204268 17.543727 -7.449076 0.028491 -14.786612 7.781470 0.840343 23.090067 0.466962 1.521720 -10.359988 0.000000 0.000000 0.000000 -17.627806 -11.161569 5.209246 -49.506749 -3.092673 -8.717739 -9.698236 -27.770336 5.122779 -3.170273 0.401059 14.381933 -18.697914 3.427391 0.724934 -9.325148 6.931941 10.505054 0.000000 0.000000 0.000000 -15.749063 -1.596430 -3.846780 -25.391086 2.802978 -3.081953 0.000000 0.000000 0.000000 6.031231 -13.099058 -10.445993 -50.687600 -12.663177 -23.064205 0.000000 0.000000 0.000000 -12.274577 -2.857862 -2.844978 -40.635095 -4.701920 -12.775667 0.000000 0.000000 0.000000 7.387456 27.420385 26.755185 -4.022399 -15.324502 -3.258763 0.000000 0.000000 0.000000 16.923645 4.008098 1.396181 49.225189 4.107562 -4.766836 7.862897 28.456807 1.218975 4.627585 1.090729 20.984235 20.308513 -1.872761 0.011823 9.155293 -7.317360 9.839754 0.000000 0.000000 0.000000 13.385213 4.716690 -4.842254 29.501869 -4.056685 -4.345149 0.000000 0.000000 0.000000 -6.609873 13.689394 -8.951206 51.757594 10.116063 -23.305552 0.000000 0.000000 0.000000 12.051935 2.894652 -2.829701 42.420871 3.043383 -13.679409 0.000000 0.000000 0.000000 -5.606177 -29.509929 29.163916 -0.220144 17.236922 -5.809812 0.000000 0.000000 0.000000 
0.001617 0.957218 0.005867 0.293286 1.988284 -11.391110 1.902403 2.060033 16.700663 -2.076733 0.457542 -3.388233 2.553666 9.782237 7.492982 0.000000 0.000000 0.000000 -4.269774 -1.367028 16.668086 0.336897 -0.105793 -2.451885 -0.915140 -4.315474 4.350662 0.000000 0.000000 0.000000 -0.132267 -1.175201 17.093068 -7.438095 0.290735 -13.807819 7.720927 0.718818 22.718940 0.503560 1.549259 -10.568284 0.000000 0.000000 0.000000 -17.617807 -11.236291 5.288367 -49.476774 -3.355799 -8.643646 -9.697854 -27.667994 5.102436 -3.039781 0.417370 15.980794 -18.069555 1.573036 0.226273 -8.922217 7.163317 10.790567 0.000000 0.000000 0.000000 -14.109528 -2.751857 -4.071495 -25.871800 2.264851 -5.015777 0.000000 0.000000 0.000000 8.686409 -13.990804 -10.125332 -48.836338 -12.843713 -25.484360 0.000000 0.000000 0.000000 -11.894956 -4.342248 -3.536958 -38.867669 -4.536096 -14.036415 0.000000 0.000000 0.000000 7.844303 28.207910 27.705354 -3.869973 -16.338459 -3.631292 0.000000 0.000000 0.000000 16.850932 4.014272 1.368052 49.352080 4.269050 -4.715619 7.672353 27.918853 1.138602 4.129078 2.840673 20.499477 21.458969 -2.537731 0.106237 8.054846 -6.649194 9.495490 0.000000 0.000000 0.000000 16.809795 1.324623 -4.055222 26.059040 -4.063557 -2.573414 0.000000 0.000000 0.000000 -4.785328 13.562765 -9.345166 52.201705 11.126840 -23.765439 0.000000 0.000000 0.000000 13.630104 2.391473 -2.804184 39.355333 2.773069 -13.410499 0.000000 0.000000 0.000000 -5.014044 -29.217308 28.717805 0.231204 16.580753 -5.356674 0.000000 0.000000 0.000000 
0.001676 0.957218 0.005867 0.342624 1.586271 -11.195445 1.770083 2.082056 16.585885 -2.054096 0.470551 -3.516993 2.720331 10.114589 7.638802 0.000000 0.000000 0.000000 -4.367093 -1.297059 16.287530 0.372882 -0.100337 -2.284442 -0.791599 -4.050973 4.252423 0.000000 0.000000 0.000000 -0.090719 -1.156928 16.766062 -7.581495 0.366821 -13.672135 7.795515 0.880056 22.688708 0.499441 1.546903 -10.560891 0.000000 0.000000 0.000000 -17.764317 -11.098427 5.216730 -49.315974 -3.284986 -8.623548 -10.041413 -27.711424 5.196617 -2.267151 0.569434 16.228901 -17.790094 1.870684 0.305428 -10.897792 7.476029 10.242877 0.000000 0.000000 0.000000 -14.042195 -2.433821 -3.914228 -27.331759 2.249190 -5.536679 0.000000 0.000000 0.000000 7.867230 -14.042228 -10.341238 -50.434428 -13.440435 -25.268308 0.000000 0.000000 0.000000 -13.694773 -0.793914 -2.108385 -39.468243 -6.342160 -17.886215 0.000000 0.000000 0.000000 7.570362 28.375337 27.861457 -3.142234 -16.225545 -3.906609 0.000000 0.000000 0.000000 16.928430 4.162026 1.448729 49.264767 4.290793 -4.710071 7.616582 27.893116 1.121047 4.149181 2.854712 20.484096 21.477022 -2.538859 0.103768 8.756608 -8.558275 12.586026 0.000000 0.000000 0.000000 16.847618 1.313234 -4.059631 26.142531 -4.072257 -2.596465 0.000000 0.000000 0.000000 -4.684494 13.559362 -9.356778 52.241152 11.133863 -23.771444 0.000000 0.000000 0.000000 13.688660 2.389166 -2.810719 39.418257 2.773962 -13.419398 0.000000 0.000000 0.000000 -4.982767 -29.219249 28.723570 0.178457 16.577535 -5.378960 0.000000 0.000000 0.000000 
0.001676 0.957218 0.005867 0.320370 1.956929 -11.391013 1.857454 2.070353 16.711616 -2.069475 0.458634 -3.401518 2.575351 9.822233 7.504122 0.000000 0.000000 0.000000 -4.246546 -1.368091 16.658851 0.227575 -0.101625 -2.446009 -0.903858 -4.290528 4.340662 0.000000 0.000000 0.000000 -0.168780 -1.171776 17.092427 -7.412974 0.279908 -13.802937 7.731835 0.748146 22.717745 0.509773 1.549299 -10.571619 0.000000 0.000000 0.000000 -17.648007 -11.223107 5.277482 -49.414075 -3.332383 -8.637581 -9.819287 -27.686040 5.134970 -2.698817 0.432790 16.259052 -18.329239 1.403296 0.156469 -9.043372 7.153669 10.666146 0.000000 0.000000 0.000000 -14.017289 -2.634271 -4.005642 -26.169320 2.082129 -5.598696 0.000000 0.000000 0.000000 7.516671 -14.260890 -10.785984 -48.458154 -12.439731 -24.797623 0.000000 0.000000 0.000000 -11.780066 -4.192420 -3.450090 -39.709401 -4.571183 -14.121161 0.000000 0.000000 0.000000 7.811054 28.184434 27.676344 -3.922141 -16.510425 -3.655539 0.000000 0.000000 0.000000 16.893602 4.032795 1.378897 49.295686 4.278810 -4.706780 7.637948 27.915563 1.130407 4.662702 2.956479 20.525324 20.279170 -3.292808 0.388546 6.785296 -8.379565 13.493139 0.000000 0.000000 0.000000 15.763984 0.526443 -3.497143 27.299860 -3.655173 -4.131007 0.000000 0.000000 0.000000 -4.303459 13.660385 -9.562383 51.478173 10.766733 -23.751474 0.000000 0.000000 0.000000 13.678483 2.372418 -2.803608 40.643844 2.576723 -12.816231 0.000000 0.000000 0.000000 -6.019422 -29.482886 29.164346 1.266164 17.923831 -5.318478 0.000000 0.000000 0.000000 
